<?xml version="1.0" encoding="utf-8"?>
<!-- Generator: Adobe Illustrator 24.2.0, SVG Export Plug-In . SVG Version: 6.00 Build 0)  -->
<svg version="1.1" id="레이어_1" xmlns="http://www.w3.org/2000/svg" xmlns:xlink="http://www.w3.org/1999/xlink" x="0px"
	 y="0px" viewBox="0 0 100 100" style="enable-background:new 0 0 100 100;" xml:space="preserve">
<style type="text/css">
	.st0{fill:#FFFFFF;}
	.st1{enable-background:new    ;}
</style>
<g id="그룹_4955" transform="translate(-105.957 1569.125)">
	<path id="패스_734" class="st0" d="M147.2-1511.4c0.5,0,0.9-0.4,0.9-0.9l0,0v-38.7c0-0.5-0.4-0.9-0.9-0.9l0,0h-7.6
		c-0.5,0-0.9,0.4-0.9,0.9l0,0v38.7c0,0.5,0.4,0.9,0.9,0.9l0,0H147.2z M140.4-1550.1h5.8v36.9h-5.8V-1550.1z"/>
	<path id="패스_735" class="st0" d="M153-1544.7h13c0.5,0,0.9-0.4,0.9-0.9l0,0v-5.4c0-0.5-0.4-0.9-0.9-0.9l0,0h-13
		c-0.5,0-0.9,0.4-0.9,0.9l0,0v5.4C152.1-1545.1,152.5-1544.7,153-1544.7L153-1544.7z M153.9-1550.1h11.2v3.6h-11.2V-1550.1z"/>
	<path id="패스_736" class="st0" d="M152.1-1534.8c0,0.5,0.4,0.9,0.9,0.9l0,0h13c0.5,0,0.9-0.4,0.9-0.9l0,0v-5.4
		c0-0.5-0.4-0.9-0.9-0.9l0,0h-13c-0.5,0-0.9,0.4-0.9,0.9l0,0V-1534.8z M153.9-1539.3h11.2v3.6h-11.2V-1539.3z"/>
	<path id="패스_737" class="st0" d="M152.1-1524c0,0.5,0.4,0.9,0.9,0.9l0,0h13c0.5,0,0.9-0.4,0.9-0.9l0,0v-5.4
		c0-0.5-0.4-0.9-0.9-0.9l0,0h-13c-0.5,0-0.9,0.4-0.9,0.9l0,0V-1524z M153.9-1528.5h11.2v3.6h-11.2V-1528.5z"/>
	<path id="패스_738" class="st0" d="M152.1-1513.2c0,0.5,0.4,0.9,0.9,0.9l0,0h13c0.5,0,0.9-0.4,0.9-0.9l0,0v-5.4
		c0-0.5-0.4-0.9-0.9-0.9l0,0h-13c-0.5,0-0.9,0.4-0.9,0.9l0,0V-1513.2z M153.9-1517.7h11.2v3.6h-11.2V-1517.7z"/>
	<path id="패스_739" class="st0" d="M180.9-1552.8h-6.4c-0.5-3.1-3.2-5.4-6.4-5.4h-30.7c-3.6,0-6.5,2.9-6.5,6.5v39.9
		c0,0.5,0.4,0.9,0.9,0.9l0,0c0.5,0,0.9-0.4,0.9-0.9l0,0v-39.9c0-2.6,2.1-4.7,4.7-4.7h30.7c2.6,0,4.7,2.1,4.7,4.7v39.9
		c0,0.5,0.4,0.9,0.9,0.9l0,0c0.5,0,0.9-0.4,0.9-0.9l0,0v-16.6h6.3c0.5,0,0.9-0.4,0.9-0.9l0,0v-22.5
		C181.8-1552.4,181.4-1552.8,180.9-1552.8z M180-1530.3h-5.4v-20.7h5.4V-1530.3z"/>
	<path id="패스_740" class="st0" d="M180.9-1507.4h-49c-0.5,0-0.9,0.4-0.9,0.9l0,0c0,0.5,0.4,0.9,0.9,0.9l0,0h49
		c0.5,0,0.9-0.4,0.9-0.9l0,0C181.8-1507,181.4-1507.4,180.9-1507.4L180.9-1507.4z"/>
</g>
<g class="st1">
	<path class="st0" d="M49.5,85.4v1.3H36v-1.3H42v-1.8c-0.6,0-1.1-0.1-1.5-0.3s-0.8-0.3-1.2-0.6s-0.6-0.5-0.7-0.8s-0.3-0.6-0.3-1
		v-0.5c0-0.4,0.1-0.8,0.3-1.1s0.5-0.6,0.9-0.9s0.9-0.4,1.4-0.6c0.6-0.1,1.2-0.2,1.9-0.2c0.7,0,1.3,0.1,1.9,0.2
		c0.6,0.1,1,0.3,1.4,0.6c0.4,0.2,0.7,0.5,0.9,0.9c0.2,0.3,0.3,0.7,0.3,1.1V81c0,0.3-0.1,0.7-0.3,1s-0.4,0.6-0.7,0.8
		s-0.7,0.4-1.2,0.6s-1,0.3-1.5,0.3v1.8H49.5z M43.6,75.7h4.7V77H37.3v-1.3H42v-1.8h1.6V75.7z M39.8,80.9c0,0.2,0.1,0.4,0.2,0.5
		c0.1,0.2,0.3,0.3,0.5,0.5c0.2,0.1,0.5,0.3,0.9,0.3c0.4,0.1,0.8,0.1,1.3,0.1s0.9,0,1.3-0.1c0.4-0.1,0.7-0.2,0.9-0.3
		c0.2-0.1,0.4-0.3,0.5-0.5c0.1-0.2,0.2-0.4,0.2-0.5v-0.3c0-0.2-0.1-0.3-0.2-0.5c-0.1-0.2-0.3-0.3-0.5-0.5c-0.2-0.1-0.5-0.3-0.9-0.3
		c-0.4-0.1-0.8-0.1-1.3-0.1s-0.9,0-1.3,0.1c-0.4,0.1-0.7,0.2-0.9,0.3c-0.2,0.1-0.4,0.3-0.5,0.5c-0.1,0.2-0.2,0.4-0.2,0.5V80.9z"/>
	<path class="st0" d="M51.1,74.6h5.6v1.3h-4.1v1.4h3.5v1.2h-3.5v1.4c0.6,0,1.1,0,1.5,0c0.4,0,0.8,0,1.2,0s0.7,0,1-0.1
		c0.3,0,0.7-0.1,1-0.1l0.2,1.3c-0.4,0.1-0.7,0.1-1.1,0.1c-0.3,0-0.8,0.1-1.2,0.1s-1,0-1.7,0c-0.7,0-1.5,0-2.5,0V74.6z M53.6,88.8
		v-3.8h7.8v-1.2h-7.9v-1.3H63v3.8h-7.8v1.3h8.2v1.3H53.6z M56.9,77.1h1.9v-2.9h1.5v7.4h-1.5v-3.2h-1.9V77.1z M61.5,74H63v7.6h-1.5
		V74z"/>
</g>
</svg>
