<?xml version="1.0" encoding="utf-8"?>
<!-- Generator: Adobe Illustrator 24.2.0, SVG Export Plug-In . SVG Version: 6.00 Build 0)  -->
<svg version="1.1" id="레이어_1" xmlns="http://www.w3.org/2000/svg" xmlns:xlink="http://www.w3.org/1999/xlink" x="0px"
	 y="0px" viewBox="0 0 100 100" style="enable-background:new 0 0 100 100;" xml:space="preserve">
<style type="text/css">
	.st0{fill:#FFFFFF;}
	.st1{enable-background:new    ;}
</style>
<g id="그룹_4950" transform="translate(260.764 1567.979)">
	<path id="패스_714" class="st0" d="M-187-1554.7h-46.8c-2.1,0-3.8,1.7-3.8,3.8v30.1c0,2.1,1.7,3.8,3.8,3.8h17.8l-1,9.3h-3.4
		c-0.5,0-1,0.4-1,1s0.4,1,1,1h20.1c0.5,0,1-0.4,1-1s-0.4-1-1-1h-3.4l-1-9.3h17.7c2.1,0,3.8-1.7,3.8-3.8v-30.1
		C-183.2-1553-184.9-1554.7-187-1554.7z M-205.7-1507.8h-9.4l1-9.3h7.3L-205.7-1507.8z M-185.1-1520.8c0,1-0.8,1.8-1.8,1.8h-46.8
		c-1,0-1.8-0.8-1.8-1.8v-30.1c0-1,0.8-1.8,1.8-1.8h46.7c1,0,1.8,0.8,1.8,1.8L-185.1-1520.8z"/>
	<path id="패스_715" class="st0" d="M-216.9-1539.7c0-0.1,0-0.1-0.1-0.2l0,0l-3.4-6.7c-0.2-0.3-0.5-0.5-0.9-0.5s-0.7,0.2-0.9,0.5
		l-3.4,6.7l0,0c0,0.1-0.1,0.1-0.1,0.2l0,0c0,0.1,0,0.1,0,0.2v13.8c0,0.5,0.4,1,1,1h6.7c0.5,0,1-0.4,1-1v-13.8
		C-216.9-1539.5-216.9-1539.6-216.9-1539.7L-216.9-1539.7z M-221.2-1544l1.8,3.6h-3.6L-221.2-1544z M-218.8-1526.6h-4.8v-11.9h4.8
		V-1526.6z"/>
	<path id="패스_716" class="st0" d="M-194.1-1547.7h-19.8c-0.5,0-1,0.4-1,1l0,0v9c0,0.5,0.4,1,1,1h19.8c0.5,0,1-0.4,1-1v-9
		C-193.2-1547.3-193.6-1547.7-194.1-1547.7z M-195.1-1538.8H-213v-7h1.1v4.3h1.9v-4.3h1.4v2.4h1.9v-2.4h1.8v4.3h1.9v-4.3h1.4v2.4
		h1.9v-2.4h1.4v4.3h1.9v-4.3h1.1L-195.1-1538.8z"/>
</g>
<g class="st1">
	<path class="st0" d="M39.8,81.6c-0.1,0.2-0.1,0.3-0.3,0.5c-0.1,0.2-0.3,0.4-0.4,0.5c-0.3,0.4-0.7,0.8-1.1,1.2
		c-0.4,0.4-0.8,0.9-1.2,1.3L35.7,84c0.5-0.5,0.9-0.9,1.3-1.3c0.4-0.4,0.8-0.9,1.1-1.3c0.3-0.4,0.5-0.8,0.6-1.2
		c0.1-0.4,0.2-0.8,0.2-1.3v-2.1h-2.5v-1.3h6.4v1.3h-2.4v2.1c0,0.5,0.1,0.9,0.2,1.3c0.1,0.4,0.3,0.8,0.7,1.2c0.3,0.4,0.7,0.8,1,1.2
		c0.4,0.4,0.8,0.8,1.3,1.3l-1.1,1c-0.4-0.4-0.8-0.8-1.2-1.2c-0.3-0.4-0.7-0.7-1-1.1c-0.2-0.2-0.3-0.4-0.4-0.5S39.8,81.7,39.8,81.6
		L39.8,81.6z M44.4,74.3h1.5V88h-1.5v-7.8h-2.2v-1.4h2.2V74.3z M48.8,88.7h-1.5V74h1.5V88.7z"/>
	<path class="st0" d="M64,85.4v1.3H50.5v-1.3h5.9v-3.1H58v3.1H64z M57.2,79.6c-0.1,0.1-0.3,0.3-0.5,0.6S56,80.7,55.5,81
		c-0.5,0.3-1.1,0.7-1.6,0.9c-0.5,0.3-1.1,0.6-1.7,0.9l-0.8-1.3c0.7-0.3,1.3-0.7,1.8-0.9c0.5-0.3,1-0.6,1.5-0.9
		c0.6-0.4,1-0.8,1.3-1.2c0.2-0.4,0.4-0.9,0.4-1.5v-0.4h-4.3v-1.4h10.1v1.4H58V77c0,0.3,0,0.6,0.1,0.8c0.1,0.2,0.1,0.5,0.3,0.7
		c0.1,0.2,0.3,0.4,0.5,0.6s0.5,0.4,0.8,0.6c0.3,0.2,0.6,0.4,0.9,0.5c0.3,0.2,0.5,0.3,0.8,0.5c0.3,0.1,0.5,0.3,0.8,0.4
		c0.3,0.1,0.6,0.3,0.9,0.5l-0.8,1.3c-0.3-0.2-0.6-0.3-0.9-0.5s-0.5-0.3-0.8-0.4c-0.3-0.1-0.5-0.3-0.8-0.4c-0.2-0.1-0.5-0.3-0.8-0.5
		c-0.5-0.3-0.9-0.6-1.2-0.9C57.5,79.9,57.3,79.7,57.2,79.6L57.2,79.6z"/>
</g>
</svg>
