<?xml version="1.0" encoding="utf-8"?>
<!-- Generator: Adobe Illustrator 24.2.0, SVG Export Plug-In . SVG Version: 6.00 Build 0)  -->
<svg version="1.1" id="레이어_1" xmlns="http://www.w3.org/2000/svg" xmlns:xlink="http://www.w3.org/1999/xlink" x="0px"
	 y="0px" viewBox="0 0 100 100" style="enable-background:new 0 0 100 100;" xml:space="preserve">
<style type="text/css">
	.st0{fill:#FFFFFF;}
	.st1{enable-background:new    ;}
</style>
<g>
	<path class="st0" d="M74.6,10.4H25.5c-0.6,0-1,0.4-1,1v34.3c0,0.6,0.4,1,1,1h16.4l-9.5,16.7c-0.3,0.5-0.1,1.1,0.4,1.4
		c0.2,0.1,0.3,0.1,0.5,0.1c0.3,0,0.7-0.2,0.9-0.5l10.1-17.7h11.9l10.1,17.7c0.2,0.3,0.5,0.5,0.9,0.5c0.2,0,0.3,0,0.5-0.1
		c0.5-0.3,0.6-0.9,0.4-1.4l-9.5-16.7h16.2c0.6,0,1-0.4,1-1V11.4C75.6,10.8,75.1,10.4,74.6,10.4z M73.6,44.7H26.5V12.4h47.1V44.7z"/>
	<path class="st0" d="M30.5,41.7H38h10h21.6c0.6,0,1-0.4,1-1V16.4c0-0.6-0.4-1-1-1H30.5c-0.6,0-1,0.4-1,1v24.3
		C29.5,41.3,29.9,41.7,30.5,41.7z M35,36.7v-4c0-1.7,1.3-3,3-3h0.9v10H38C36.3,39.7,35,38.4,35,36.7z M44,29.7v10h-3.1v-10H44z
		 M46,39.7v-10h2c1.7,0,3,1.3,3,3v4c0,1.7-1.3,3-3,3H46z M31.5,17.4h37.1v22.3H51.9c0.6-0.8,1-1.9,1-3v-4c0-2.8-2.2-5-5-5H38
		c-2.8,0-5,2.2-5,5v4c0,1.1,0.4,2.2,1,3h-2.5V17.4z"/>
</g>
<g class="st1">
	<path class="st0" d="M44.6,76.9h-8.4v-1.3h3.4v-1.7h1.6v1.7h3.4V76.9z M40.4,82.9c-0.6,0-1.1-0.1-1.5-0.2s-0.8-0.3-1.1-0.6
		c-0.3-0.2-0.5-0.5-0.6-0.8c-0.1-0.3-0.2-0.6-0.2-0.9v-0.5c0-0.3,0.1-0.6,0.2-0.9c0.1-0.3,0.3-0.6,0.6-0.8c0.3-0.2,0.6-0.4,1.1-0.6
		c0.4-0.1,0.9-0.2,1.5-0.2c0.6,0,1.1,0.1,1.5,0.2c0.4,0.1,0.8,0.3,1.1,0.6c0.3,0.2,0.5,0.5,0.6,0.8c0.1,0.3,0.2,0.6,0.2,0.9v0.5
		c0,0.3-0.1,0.6-0.2,0.9c-0.1,0.3-0.3,0.6-0.6,0.8c-0.3,0.2-0.6,0.4-1.1,0.6C41.5,82.9,41,82.9,40.4,82.9z M38.4,83.9h9.3v4.9H46
		v-3.5h-7.7V83.9z M40.4,81.7c0.3,0,0.6,0,0.8-0.1c0.2-0.1,0.4-0.2,0.6-0.3c0.2-0.1,0.3-0.3,0.4-0.4c0.1-0.2,0.1-0.3,0.1-0.5V80
		c0-0.2,0-0.3-0.1-0.5c-0.1-0.2-0.2-0.3-0.4-0.4c-0.2-0.1-0.4-0.2-0.6-0.3c-0.2-0.1-0.5-0.1-0.9-0.1s-0.6,0-0.9,0.1
		c-0.2,0.1-0.4,0.2-0.6,0.3c-0.2,0.1-0.3,0.3-0.4,0.4c-0.1,0.2-0.1,0.3-0.1,0.5v0.4c0,0.2,0,0.3,0.1,0.5s0.2,0.3,0.4,0.4
		c0.2,0.1,0.4,0.2,0.6,0.3C39.8,81.6,40.1,81.7,40.4,81.7z M49.7,79.3h-2.1v3.9h-1.6V74h1.6v3.8h2.1V79.3z"/>
	<path class="st0" d="M54.4,84v-2.1c-1.1,0-2.3,0-3.6,0v-1.4c0.9,0,1.7,0,2.5,0c0.8,0,1.5,0,2.2,0s1.5-0.1,2.2-0.1s1.6-0.1,2.4-0.2
		l0.1,1.3c-0.7,0.1-1.4,0.1-2.1,0.2s-1.4,0.1-2.2,0.1V84H54.4z M55.3,79.8c-0.6,0-1.1-0.1-1.5-0.2s-0.8-0.3-1.1-0.5
		s-0.6-0.5-0.7-0.8s-0.2-0.6-0.2-0.9v-0.5c0-0.3,0.1-0.6,0.2-0.9s0.4-0.6,0.7-0.8c0.3-0.2,0.7-0.4,1.1-0.6c0.4-0.1,0.9-0.2,1.5-0.2
		c0.6,0,1.1,0.1,1.5,0.2c0.4,0.1,0.8,0.3,1.1,0.6c0.3,0.2,0.6,0.5,0.7,0.8s0.2,0.6,0.2,0.9v0.5c0,0.3-0.1,0.6-0.2,0.9
		s-0.4,0.6-0.7,0.8s-0.7,0.4-1.1,0.5S55.9,79.8,55.3,79.8z M54.7,87.2H63v1.4h-9.9v-3.9h1.6V87.2z M55.3,78.5c0.3,0,0.6,0,0.9-0.1
		c0.3-0.1,0.5-0.2,0.7-0.3c0.2-0.1,0.3-0.3,0.4-0.4s0.1-0.3,0.1-0.5v-0.3c0-0.2,0-0.3-0.1-0.5s-0.2-0.3-0.4-0.4
		c-0.2-0.1-0.4-0.2-0.7-0.3c-0.3-0.1-0.6-0.1-0.9-0.1c-0.3,0-0.6,0-0.9,0.1S54,75.9,53.8,76c-0.2,0.1-0.3,0.2-0.4,0.4
		s-0.1,0.3-0.1,0.5v0.3c0,0.2,0,0.3,0.1,0.5s0.2,0.3,0.4,0.4c0.2,0.1,0.4,0.2,0.7,0.3S55,78.5,55.3,78.5z M61.2,85.4v-1.3h-3.1v-1.3
		h3.1V74h1.6v11.3H61.2z"/>
</g>
</svg>
