<?xml version="1.0" encoding="utf-8"?>
<!-- Generator: Adobe Illustrator 24.2.0, SVG Export Plug-In . SVG Version: 6.00 Build 0)  -->
<svg version="1.1" id="레이어_1" xmlns="http://www.w3.org/2000/svg" xmlns:xlink="http://www.w3.org/1999/xlink" x="0px"
	 y="0px" viewBox="0 0 100 100" style="enable-background:new 0 0 100 100;" xml:space="preserve">
<style type="text/css">
	.st0{fill:#FFFFFF;}
	.st1{enable-background:new    ;}
</style>
<g id="그룹_4951" transform="translate(226.133 1569.801)">
	<path id="패스_717" class="st0" d="M-201.5-1504.9h9v-18h-9V-1504.9z M-199.7-1521.1h5.4v14.4h-5.4V-1521.1z"/>
	<path id="패스_718" class="st0" d="M-173.6-1504.9h9v-54h-9V-1504.9z M-171.8-1557.1h5.4v50.4h-5.4V-1557.1z"/>
	<path id="패스_719" class="st0" d="M-159.7-1543.6v38.7h9v-38.7H-159.7z M-152.5-1506.7h-5.4v-35.1h5.4V-1506.7z"/>
	<path id="패스_720" class="st0" d="M-187.5-1504.9h9v-30.6h-9V-1504.9z M-185.7-1533.7h5.4v27h-5.4V-1533.7z"/>
	<path id="패스_721" class="st0" d="M-184.8-1550.8v1.8h3.7l-21,21l1.3,1.3l21-21v3.7h1.8v-6.7L-184.8-1550.8L-184.8-1550.8z"/>
</g>
<g class="st1">
	<path class="st0" d="M37.8,74.7h9.7v2.3c0,0.4,0,0.9-0.1,1.5c-0.1,0.6-0.1,1.1-0.2,1.7h2.3v1.3H36v-1.3h9.5
		c0.1-0.6,0.2-1.1,0.3-1.7c0.1-0.5,0.1-1.1,0.1-1.5V76h-8.1V74.7z M47.6,88.7H38v-5.6h9.6V88.7z M46,84.4h-6.5v2.9H46V84.4z"/>
	<path class="st0" d="M64,80.7V82h-3.4v2.1c0.4,0.2,0.8,0.5,1,0.8c0.2,0.3,0.3,0.7,0.3,1.1v0.5c0,0.4-0.1,0.7-0.3,1
		c-0.2,0.3-0.5,0.6-0.9,0.8c-0.4,0.2-0.9,0.4-1.5,0.5c-0.6,0.1-1.2,0.2-1.9,0.2s-1.3-0.1-1.9-0.2c-0.6-0.1-1.1-0.3-1.5-0.5
		c-0.4-0.2-0.7-0.5-0.9-0.8c-0.2-0.3-0.3-0.7-0.3-1V86c0-0.4,0.1-0.7,0.3-1.1c0.2-0.3,0.6-0.6,1-0.8V82h-3.4v-1.3H64z M57.2,74.2
		c0.7,0,1.3,0.1,1.9,0.2c0.6,0.1,1.1,0.3,1.5,0.5c0.4,0.2,0.7,0.5,1,0.8c0.2,0.3,0.3,0.7,0.3,1.1v0.4c0,0.4-0.1,0.8-0.3,1.1
		c-0.2,0.3-0.5,0.6-1,0.8s-0.9,0.4-1.5,0.5c-0.6,0.1-1.2,0.2-1.9,0.2s-1.3-0.1-1.9-0.2c-0.6-0.1-1.1-0.3-1.5-0.5
		c-0.4-0.2-0.7-0.5-1-0.8s-0.3-0.7-0.3-1.1v-0.4c0-0.4,0.1-0.8,0.3-1.1s0.5-0.6,1-0.8c0.4-0.2,0.9-0.4,1.5-0.5
		C55.9,74.3,56.5,74.2,57.2,74.2z M57.2,78.6c0.5,0,0.9,0,1.3-0.1c0.4-0.1,0.7-0.2,1-0.3c0.3-0.1,0.5-0.3,0.7-0.4
		c0.2-0.2,0.2-0.4,0.2-0.6v-0.3c0-0.2-0.1-0.4-0.2-0.6s-0.4-0.3-0.7-0.4c-0.3-0.1-0.6-0.2-1-0.3c-0.4-0.1-0.8-0.1-1.3-0.1
		c-0.5,0-0.9,0-1.3,0.1s-0.7,0.2-1,0.3c-0.3,0.1-0.5,0.3-0.7,0.4c-0.2,0.2-0.2,0.4-0.2,0.6v0.3c0,0.2,0.1,0.4,0.2,0.6
		c0.2,0.2,0.4,0.3,0.7,0.4c0.3,0.1,0.6,0.2,1,0.3C56.3,78.6,56.8,78.6,57.2,78.6z M57.2,87.8c0.4,0,0.9,0,1.2-0.1
		c0.4-0.1,0.7-0.2,1-0.3c0.3-0.1,0.5-0.3,0.6-0.4c0.2-0.2,0.2-0.3,0.2-0.5v-0.3c0-0.2-0.1-0.4-0.2-0.5c-0.2-0.2-0.4-0.3-0.6-0.4
		s-0.6-0.2-1-0.3s-0.8-0.1-1.2-0.1c-0.4,0-0.9,0-1.2,0.1s-0.7,0.2-1,0.3c-0.3,0.1-0.5,0.3-0.6,0.4c-0.2,0.2-0.2,0.3-0.2,0.5v0.3
		c0,0.2,0.1,0.4,0.2,0.5s0.4,0.3,0.6,0.4c0.3,0.1,0.6,0.2,1,0.3C56.4,87.8,56.8,87.8,57.2,87.8z M57.2,83.4c0.3,0,0.6,0,0.9,0
		s0.6,0.1,0.8,0.1V82h-3.4v1.6c0.3-0.1,0.5-0.1,0.8-0.1C56.6,83.4,56.9,83.4,57.2,83.4z"/>
</g>
</svg>
