<?xml version="1.0" encoding="utf-8"?>
<!-- Generator: Adobe Illustrator 24.2.0, SVG Export Plug-In . SVG Version: 6.00 Build 0)  -->
<svg version="1.1" id="레이어_1" xmlns="http://www.w3.org/2000/svg" xmlns:xlink="http://www.w3.org/1999/xlink" x="0px"
	 y="0px" viewBox="0 0 100 100" style="enable-background:new 0 0 100 100;" xml:space="preserve">
<style type="text/css">
	.st0{fill:#FFFFFF;}
	.st1{enable-background:new    ;}
</style>
<path id="패스_741" class="st0" d="M75.8,15.6H43.3v-4.7H30v4.7h-5.1v9.9H30v30.1h-5.1v9h29.2v-9H43.2V25.5h12.2v5.4h6.3v4.6
	c-1.5,0.4-2.6,1.9-2.6,3.5c0,0.8,0.3,1.7,0.8,2.3c-2.5,1.1-4.2,3.5-4.2,6.3c0,3.8,3,6.8,6.8,6.8s6.8-3.1,6.8-6.8v-0.9h-1.8v0.9
	c0,2.8-2.2,5-5,5s-5-2.2-5-5s2.2-5,5-5h0.9v-0.1c1.7-0.3,2.9-1.8,2.9-3.5s-1.2-3.1-2.8-3.5v-4.6h6.7v-5.4h5.4L75.8,15.6z M64.7,39
	c0,1-0.8,1.8-1.8,1.8S61.1,40,61.1,39s0.8-1.8,1.8-1.8l0,0C63.9,37.2,64.7,38,64.7,39L64.7,39z M41,23.5l-9.1,9.1V14.4L41,23.5z
	 M31.9,36l9.1,9.1l-9.1,9.1V36z M32.7,34.3l8.8-8.9v17.7L32.7,34.3z M41.6,21.5l-8.8-8.9h8.8V21.5z M26.8,23.7v-6.3h3.3v6.3H26.8z
	 M52.4,57.5v5.4H26.8v-5.4H52.4L52.4,57.5z M33,55.7l8.6-8.6v8.6H33z M68.6,29.1H57.4v-3.6h11.2V29.1z M74,23.7H43.3v-6.3H74V23.7z"
	/>
<g class="st1">
	<path class="st0" d="M46.7,84.5v-5.2h-3.7c-0.1,0.3-0.4,0.6-0.7,0.9c-0.3,0.3-0.7,0.6-1.1,0.9c-0.5,0.3-1,0.6-1.7,0.9
		c-0.7,0.3-1.5,0.7-2.4,1.1l-0.6-1.3c1.1-0.5,2-0.9,2.7-1.3c0.7-0.4,1.2-0.7,1.6-1s0.6-0.6,0.8-1c0.1-0.3,0.2-0.7,0.2-1.1v-1.2h-4.7
		V75h6.2v2.6c0,0.1,0,0.1,0,0.2s0,0.1,0,0.2h3.4V74h1.6v10.5H46.7z M40.7,87.2h7.9v1.4h-9.5v-4.8h1.6V87.2z"/>
	<path class="st0" d="M55,78.5c0,0.1-0.2,0.3-0.4,0.5c-0.2,0.2-0.4,0.4-0.7,0.7c-0.3,0.3-0.7,0.6-1.2,1c-0.5,0.4-0.9,0.7-1.4,1
		l-0.9-1.1c0.5-0.4,1-0.8,1.5-1.1c0.5-0.4,0.8-0.7,1.1-1c0.2-0.2,0.4-0.4,0.5-0.6c0.1-0.2,0.2-0.4,0.3-0.6s0.1-0.4,0.2-0.6
		c0-0.2,0-0.5,0-0.8v-1.6h1.6v1.5c0,0.3,0,0.5,0,0.7c0,0.2,0,0.4,0.1,0.6c0.1,0.2,0.1,0.4,0.2,0.5s0.3,0.3,0.5,0.5
		c0.4,0.3,0.8,0.7,1.2,1c0.4,0.3,0.9,0.6,1.3,0.9l-0.9,1.1c-0.4-0.3-0.8-0.6-1.2-0.9s-0.7-0.6-1.1-0.9c-0.2-0.2-0.4-0.4-0.6-0.5
		C55.2,78.8,55.1,78.6,55,78.5L55,78.5z M53.6,88.8v-4h7.5v-1.4h-7.6v-1.3h9.2v4h-7.5v1.4h7.9v1.3H53.6z M61.1,81.4v-3.3h-2.9v-1.4
		h2.9V74h1.6v7.3H61.1z"/>
</g>
</svg>
