<?xml version="1.0" encoding="utf-8"?>
<!-- Generator: Adobe Illustrator 24.2.0, SVG Export Plug-In . SVG Version: 6.00 Build 0)  -->
<svg version="1.1" id="레이어_1" xmlns="http://www.w3.org/2000/svg" xmlns:xlink="http://www.w3.org/1999/xlink" x="0px"
	 y="0px" viewBox="0 0 100 100" style="enable-background:new 0 0 100 100;" xml:space="preserve">
<style type="text/css">
	.st0{fill:#FFFFFF;}
	.st1{enable-background:new    ;}
</style>
<g id="그룹_4953" transform="translate(-34.622 1570.14)">
	<path id="패스_727" class="st0" d="M104-1532.5h-3.8v-4.6h7.3c0.5,0,0.9-0.4,0.9-0.9l0,0v-6.2h-1.8v5.3h-6.4v-8.5
		c0-1.4-0.5-2.7-1.5-3.6c-1-1-2.3-1.5-3.6-1.5H74.3c-1.4,0-2.7,0.5-3.6,1.5c-1,1-1.5,2.3-1.5,3.6v8.5H63v-6h-1.8v6.9
		c0,0.5,0.4,0.9,0.9,0.9l0,0h7.1v4.6h-3.7c-3,0-4.9,2.3-4.9,5.8v16.1h5.1c0.4,2.9,2.9,5,5.8,5s5.4-2.1,5.8-5h14.8
		c0.4,2.9,2.9,5,5.8,5s5.4-2.1,5.8-5h5.1v-16.1C109-1530.2,107-1532.5,104-1532.5z M71.6-1507.4c-1.9,0-3.6-1.3-4-3.2h8
		C75.2-1508.7,73.5-1507.4,71.6-1507.4L71.6-1507.4z M98-1507.4c-1.9,0-3.6-1.3-4-3.2h8C101.6-1508.7,99.9-1507.4,98-1507.4
		L98-1507.4z M107.2-1512.4H62.5v-3.7h44.7V-1512.4z M62.4-1517.9v-8.8c0-0.9,0.2-4,3.1-4H71v-16.8c0-0.9,0.3-1.7,1-2.3
		c0.6-0.6,1.5-1,2.3-1h20.8c0.9,0,1.7,0.3,2.3,1c0.6,0.6,1,1.5,1,2.3l-0.1,16.8h5.6c2.9,0,3.1,3.1,3.1,4v8.8H62.4z"/>
	<path id="패스_728" class="st0" d="M94.4-1546.6H75.2c-0.5,0-0.9,0.4-0.9,0.9l0,0v11c0,0.5,0.4,0.9,0.9,0.9l0,0h19.2
		c0.5,0,0.9-0.4,0.9-0.9l0,0v-11C95.3-1546.2,94.9-1546.6,94.4-1546.6z M93.5-1535.7H76.1v-9.2h17.4V-1535.7z"/>
	<path id="패스_729" class="st0" d="M63.1-1552.3c-0.1-2.2,1.7-4,3.9-4.1h35.8c2.2,0.1,4,1.9,3.9,4.1v2.9h1.8v-2.9
		c0.1-3.2-2.5-5.8-5.7-5.9H67c-3.2,0.1-5.8,2.7-5.7,5.9v2.9h1.8L63.1-1552.3z"/>
	<path id="패스_730" class="st0" d="M69.5-1527.9c-2.1-0.1-4,1.5-4.1,3.6c-0.1,2.1,1.5,4,3.6,4.1c0.1,0,0.2,0,0.3,0
		c2,0,3.7-1.6,3.9-3.6l0,0C73.3-1525.9,71.7-1527.8,69.5-1527.9z M69.1-1522c-1.1-0.1-2-1.1-1.9-2.2c0.1-1.1,1-1.9,2.1-1.9h0.1
		c1.1,0.1,2,1.1,1.9,2.2C71.3-1522.8,70.3-1521.9,69.1-1522L69.1-1522z"/>
	<path id="패스_731" class="st0" d="M100.5-1527.9c-2.1-0.1-4,1.5-4.1,3.6c-0.1,1,0.3,2,0.9,2.8c0.7,0.8,1.6,1.2,2.7,1.3
		c0.1,0,0.2,0,0.3,0c0.9,0,1.8-0.3,2.5-1c0.8-0.7,1.2-1.6,1.3-2.7C104.3-1525.9,102.7-1527.8,100.5-1527.9z M102.3-1523.9
		c0,0.5-0.3,1.1-0.7,1.4c-0.4,0.4-0.9,0.5-1.5,0.5c-0.5,0-1.1-0.3-1.4-0.7c-0.4-0.4-0.5-1-0.5-1.5c0.1-1.1,1-1.9,2.1-1.9h0.1
		C101.6-1526,102.4-1525.1,102.3-1523.9L102.3-1523.9z"/>
	<rect id="사각형_1833" x="78.2" y="-1525.2" class="st0" width="13.2" height="1.8"/>
</g>
<g class="st1">
	<path class="st0" d="M26.6,88.7v-4.8h-3.5v4.8h-1.6v-4.8h-3.4v-1.3h13.4v1.3h-3.4v4.8H26.6z M24.8,74.3c0.7,0,1.4,0.1,2,0.2
		c0.6,0.2,1.1,0.4,1.6,0.6c0.4,0.3,0.8,0.6,1,1c0.2,0.4,0.3,0.8,0.3,1.3V78c0,0.5-0.1,0.9-0.3,1.3s-0.6,0.7-1,1s-0.9,0.5-1.6,0.6
		s-1.3,0.2-2,0.2c-0.8,0-1.4-0.1-2-0.2c-0.6-0.2-1.1-0.4-1.5-0.6s-0.8-0.6-1-1c-0.2-0.4-0.3-0.8-0.3-1.3v-0.6c0-0.5,0.1-0.9,0.3-1.3
		c0.2-0.4,0.6-0.7,1-1c0.4-0.3,0.9-0.5,1.5-0.6C23.4,74.4,24.1,74.3,24.8,74.3z M24.8,79.8c0.5,0,1,0,1.4-0.1s0.8-0.2,1.1-0.4
		c0.3-0.2,0.5-0.3,0.7-0.6c0.2-0.2,0.2-0.5,0.2-0.7v-0.5c0-0.3-0.1-0.5-0.2-0.7c-0.2-0.2-0.4-0.4-0.7-0.6c-0.3-0.2-0.6-0.3-1.1-0.4
		s-0.9-0.1-1.4-0.1c-0.5,0-1,0-1.4,0.1c-0.4,0.1-0.8,0.2-1.1,0.4c-0.3,0.2-0.5,0.3-0.7,0.6c-0.2,0.2-0.2,0.5-0.2,0.7V78
		c0,0.3,0.1,0.5,0.2,0.7c0.2,0.2,0.4,0.4,0.7,0.6c0.3,0.2,0.6,0.3,1.1,0.4C23.9,79.8,24.3,79.8,24.8,79.8z"/>
	<path class="st0" d="M43.9,78.1h-7.8v1.1h8v1.3h-4v1.2H46V83H32.6v-1.3h5.9v-1.2h-3.9v-6H44v1.3h-7.9v1h7.8V78.1z M39.3,89.1
		c-0.7,0-1.3-0.1-1.9-0.2c-0.6-0.1-1-0.3-1.4-0.5c-0.4-0.2-0.7-0.5-0.9-0.8c-0.2-0.3-0.3-0.6-0.3-1v-0.5c0-0.4,0.1-0.7,0.3-1
		c0.2-0.3,0.5-0.6,0.9-0.8c0.4-0.2,0.9-0.4,1.4-0.5c0.6-0.1,1.2-0.2,1.9-0.2s1.3,0.1,1.9,0.2c0.6,0.1,1,0.3,1.4,0.5
		c0.4,0.2,0.7,0.5,0.9,0.8c0.2,0.3,0.3,0.6,0.3,1v0.5c0,0.4-0.1,0.7-0.3,1s-0.5,0.6-0.9,0.8c-0.4,0.2-0.9,0.4-1.4,0.5
		C40.6,89.1,40,89.1,39.3,89.1z M39.3,84.9c-0.4,0-0.9,0-1.2,0.1c-0.4,0.1-0.7,0.2-1,0.3c-0.3,0.1-0.5,0.3-0.6,0.4
		c-0.1,0.2-0.2,0.3-0.2,0.5v0.3c0,0.2,0.1,0.3,0.2,0.5c0.1,0.2,0.4,0.3,0.6,0.4c0.3,0.1,0.6,0.2,1,0.3c0.4,0.1,0.8,0.1,1.2,0.1
		s0.9,0,1.2-0.1c0.4-0.1,0.7-0.2,1-0.3c0.3-0.1,0.5-0.3,0.6-0.4c0.1-0.2,0.2-0.3,0.2-0.5v-0.3c0-0.2-0.1-0.3-0.2-0.5
		c-0.1-0.2-0.4-0.3-0.6-0.4c-0.3-0.1-0.6-0.2-1-0.3C40.1,85,39.7,84.9,39.3,84.9z"/>
	<path class="st0" d="M53.2,74.3l-4.9,14.2h-1.5l4.8-14.2H53.2z"/>
	<path class="st0" d="M60.1,85.5v-2.8H54v-1.3h13.4v1.3h-5.7v2.8H60.1z M57.5,87.2h8.3v1.4h-9.9v-4.3h1.6V87.2z M60.7,74.3
		c0.7,0,1.4,0.1,2,0.2c0.6,0.1,1.1,0.3,1.5,0.5s0.7,0.5,0.9,0.9c0.2,0.3,0.3,0.7,0.3,1.1v0.5c0,0.4-0.1,0.8-0.3,1.1
		c-0.2,0.3-0.5,0.6-0.9,0.9c-0.4,0.2-0.9,0.4-1.5,0.5c-0.6,0.1-1.2,0.2-2,0.2c-0.7,0-1.4-0.1-2-0.2c-0.6-0.1-1.1-0.3-1.5-0.5
		c-0.4-0.2-0.7-0.5-0.9-0.9C56.1,78.4,56,78,56,77.6V77c0-0.4,0.1-0.8,0.3-1.1c0.2-0.3,0.5-0.6,0.9-0.9s0.9-0.4,1.5-0.5
		C59.3,74.4,60,74.3,60.7,74.3z M60.7,79c0.5,0,0.9,0,1.3-0.1s0.7-0.2,1-0.3c0.3-0.1,0.5-0.3,0.6-0.5c0.2-0.2,0.2-0.4,0.2-0.6v-0.4
		c0-0.2-0.1-0.4-0.2-0.6c-0.2-0.2-0.4-0.3-0.6-0.5c-0.3-0.1-0.6-0.2-1-0.3c-0.4-0.1-0.8-0.1-1.3-0.1c-0.5,0-0.9,0-1.3,0.1
		c-0.4,0.1-0.7,0.2-1,0.3c-0.3,0.1-0.5,0.3-0.6,0.5c-0.2,0.2-0.2,0.4-0.2,0.6v0.4c0,0.2,0.1,0.4,0.2,0.6c0.2,0.2,0.4,0.3,0.6,0.5
		c0.3,0.1,0.6,0.2,1,0.3S60.2,79,60.7,79z"/>
	<path class="st0" d="M81.9,81.1v1.3H68.4v-1.3h5.9v-1.9H76v1.9H81.9z M80.3,80.1c-0.6-0.2-1.1-0.4-1.7-0.7s-1-0.4-1.4-0.6
		c-0.7-0.3-1.2-0.6-1.5-0.8c-0.3-0.2-0.5-0.4-0.5-0.5h0c-0.1,0.2-0.2,0.3-0.5,0.5s-0.8,0.5-1.5,0.8c-0.4,0.2-0.9,0.4-1.4,0.6
		s-1.1,0.5-1.7,0.7l-0.6-1.3c0.8-0.3,1.4-0.5,2-0.8c0.6-0.2,1.1-0.5,1.4-0.7c0.3-0.1,0.5-0.3,0.7-0.4s0.3-0.3,0.5-0.4
		c0.1-0.2,0.2-0.3,0.2-0.5c0-0.2,0.1-0.4,0.1-0.7v-1h1.6v1c0,0.3,0,0.5,0.1,0.7c0,0.2,0.1,0.4,0.2,0.5c0.1,0.2,0.3,0.3,0.5,0.4
		c0.2,0.1,0.4,0.3,0.7,0.4c0.4,0.2,0.9,0.4,1.5,0.7c0.6,0.3,1.2,0.5,2,0.8L80.3,80.1z M75.2,89.1c-0.7,0-1.3-0.1-1.9-0.2
		c-0.6-0.1-1-0.3-1.4-0.6c-0.4-0.2-0.7-0.5-0.9-0.8c-0.2-0.3-0.3-0.7-0.3-1v-0.5c0-0.4,0.1-0.7,0.3-1.1c0.2-0.3,0.5-0.6,0.9-0.8
		c0.4-0.2,0.9-0.4,1.4-0.5c0.6-0.1,1.2-0.2,1.9-0.2s1.3,0.1,1.9,0.2c0.6,0.1,1,0.3,1.4,0.6s0.7,0.5,0.9,0.8c0.2,0.3,0.3,0.7,0.3,1
		v0.5c0,0.4-0.1,0.7-0.3,1c-0.2,0.3-0.5,0.6-0.9,0.8s-0.9,0.4-1.4,0.6C76.5,89,75.9,89.1,75.2,89.1z M75.2,84.6
		c-0.4,0-0.9,0-1.2,0.1c-0.4,0.1-0.7,0.2-1,0.3c-0.3,0.1-0.5,0.3-0.6,0.5s-0.2,0.4-0.2,0.5v0.3c0,0.2,0.1,0.4,0.2,0.5
		s0.4,0.3,0.6,0.5c0.3,0.1,0.6,0.2,1,0.3c0.4,0.1,0.8,0.1,1.2,0.1c0.4,0,0.9,0,1.2-0.1c0.4-0.1,0.7-0.2,1-0.3
		c0.3-0.1,0.5-0.3,0.6-0.5c0.1-0.2,0.2-0.4,0.2-0.5V86c0-0.2-0.1-0.4-0.2-0.5c-0.1-0.2-0.4-0.3-0.6-0.5s-0.6-0.2-1-0.3
		C76,84.6,75.6,84.6,75.2,84.6z"/>
</g>
</svg>
